name Walk10.mot
datacolumns 19
datarows 20
range 1.75500000 1.85000000
endheader

                time	   L_ground_force_vx	   L_ground_force_vy	   L_ground_force_vz	   L_ground_force_px	   L_ground_force_py	   L_ground_force_pz	   R_ground_force_vx	   R_ground_force_vy	   R_ground_force_vz	   R_ground_force_px	   R_ground_force_py	   R_ground_force_pz	   L_ground_torque_x	   L_ground_torque_y	   L_ground_torque_z	   R_ground_torque_x	   R_ground_torque_y	   R_ground_torque_z	
          1.75500000	         14.76000226	        555.22126868	         37.44772538	         -0.30513276	          0.00000000	         -0.10639620	          0.00000000	          0.00000000	         -0.00000000	          0.00000000	          0.00000000	          0.00000000	          0.00000000	         -0.22925337	          0.00000000	          0.00000000	          0.00000000	          0.00000000	
          1.76000000	         17.06844541	        564.77303012	         38.41751820	         -0.30428793	          0.00000000	         -0.10667639	          0.00000000	          0.00000000	          0.00000000	          0.00000000	          0.00000000	          0.00000000	          0.00000000	         -0.16181724	          0.00000000	          0.00000000	          0.00000000	          0.00000000	
          1.76500000	         19.36450814	        574.23944932	         39.53351397	         -0.30347408	          0.00000000	         -0.10710352	          0.00000000	          0.00000000	          0.00000000	         -0.00000000	          0.00000000	         -0.00000000	          0.00000000	         -0.08667274	          0.00000000	          0.00000000	         -0.00000000	          0.00000000	
          1.77000000	         21.64271311	        583.77435204	         40.77941264	         -0.30264732	          0.00000000	         -0.10747840	         -0.00000000	         -0.00000000	          0.00000000	         -0.00000000	          0.00000000	         -0.00000000	          0.00000000	         -0.03949852	          0.00000000	          0.00000000	         -0.00000000	          0.00000000	
          1.77500000	         24.12264919	        593.65694567	         41.97717444	         -0.30180115	          0.00000000	         -0.10777216	         -0.00000000	         -0.00000000	         -0.00000000	         -0.00000000	          0.00000000	         -0.00000000	          0.00000000	         -0.00605046	          0.00000000	          0.00000000	         -0.00000000	          0.00000000	
          1.78000000	         26.94382167	        604.01998949	         43.08511807	         -0.30105724	          0.00000000	         -0.10809698	         -0.00000000	          0.00000000	         -0.00000000	          0.00000000	          0.00000000	          0.00000000	          0.00000000	          0.04432815	          0.00000000	          0.00000000	          0.00000000	          0.00000000	
          1.78500000	         29.97113541	        614.57643394	         44.24060175	         -0.30044250	          0.00000000	         -0.10841828	          0.00000000	          0.00000000	          0.00000000	          0.00000000	          0.00000000	          0.00000000	          0.00000000	          0.08382150	          0.00000000	          0.00000000	          0.00000000	          0.00000000	
          1.79000000	         33.15656896	        625.30252201	         45.37328544	         -0.29989695	          0.00000000	         -0.10872447	          0.00000000	          0.00000000	          0.00000000	          0.00000000	          0.00000000	          0.00000000	          0.00000000	          0.11565097	          0.00000000	          0.00000000	          0.00000000	          0.00000000	
          1.79500000	         36.46190056	        636.47381304	         46.37148930	         -0.29934665	          0.00000000	         -0.10909144	         -0.00000000	         -0.00000000	          0.00000000	         -0.00000000	          0.00000000	         -0.00000000	          0.00000000	          0.11992994	          0.00000000	          0.00000000	         -0.00000000	          0.00000000	
          1.80000000	         39.93850139	        647.95869427	         47.39609997	         -0.29878129	          0.00000000	         -0.10961388	         -0.00000000	         -0.00000004	         -0.00000000	         -0.00000000	          0.00000000	         -0.00000000	          0.00000000	          0.11456689	          0.00000000	          0.00000000	         -0.00000000	          0.00000000	
          1.80500000	         43.56547588	        659.50807404	         48.53245994	         -0.29825579	          0.00000000	         -0.10992468	         -0.00000000	         -0.00000007	         -0.00000000	          0.00000000	          0.00000000	          0.00000000	          0.00000000	          0.10729458	          0.00000000	          0.00000000	          0.00000000	          0.00000000	
          1.81000000	         47.19748734	        670.45846690	         49.72386186	         -0.29783617	          0.00000000	         -0.11002741	          0.00000000	          0.00000022	         -0.00000001	          0.00000000	          0.00000000	          0.00000000	          0.00000000	          0.11523793	          0.00000000	          0.00000000	          0.00000000	          0.00000000	
          1.81500000	         50.89330655	        680.46243339	         50.80273561	         -0.29745985	          0.00000000	         -0.11022260	          0.00000003	          0.00000122	          0.00000003	          0.00000000	          0.00000000	          0.00000000	          0.00000000	          0.11501229	          0.00000000	          0.00000000	          0.00000000	          0.00000000	
          1.82000000	         54.72690162	        689.57478513	         51.71048534	         -0.29696161	          0.00000000	         -0.11039862	          0.00000003	          0.00000110	          0.00000012	         -0.00000000	          0.00000000	         -0.00000000	          0.00000000	          0.10298248	          0.00000000	          0.00000000	         -0.00000000	          0.00000000	
          1.82500000	         58.59855122	        697.36576754	         52.53180668	         -0.29639373	          0.00000000	         -0.11058862	         -0.00000018	         -0.00000840	          0.00000006	         -0.00000001	          0.00000000	         -0.00000001	          0.00000000	          0.12459368	          0.00000000	          0.00000000	         -0.00000001	          0.00000000	
          1.83000000	         62.24313983	        703.44772988	         53.26706070	         -0.29586243	          0.00000000	         -0.11092446	         -0.00000079	         -0.00003197	         -0.00000096	         -0.00000002	          0.00000000	         -0.00000001	          0.00000000	          0.16469081	          0.00000000	          0.00000000	         -0.00000002	          0.00000000	
          1.83500000	         65.56306376	        707.93504302	         53.94408568	         -0.29534128	          0.00000000	         -0.11127070	         -0.00000038	         -0.00000558	         -0.00000309	          0.00000008	          0.00000000	          0.00000003	          0.00000000	          0.19023702	          0.00000000	          0.00000000	          0.00000008	          0.00000000	
          1.84000000	         68.88023367	        710.72535564	         54.53530477	         -0.29466225	          0.00000000	         -0.11160555	          0.00000631	          0.00028011	          0.00000086	          0.00000034	          0.00000000	          0.00000014	          0.00000000	          0.23589405	          0.00000000	          0.00000000	          0.00000041	          0.00000000	
          1.84500000	         72.26225597	        711.61772870	         55.01514338	         -0.29381233	          0.00000000	         -0.11191072	          0.00001984	          0.00077830	          0.00003072	          0.00000019	          0.00000000	          0.00000009	          0.00000000	          0.29041554	          0.00000000	          0.00000000	          0.00000031	          0.00000000	
          1.85000000	         75.50402698	        711.23252463	         55.49407810	         -0.29305510	          0.00000000	         -0.11217643	         -0.00000669	         -0.00056166	          0.00007178	         -0.00000269	          0.00000000	         -0.00000109	          0.00000000	          0.32808819	          0.00000000	          0.00000000	         -0.00000294	          0.00000000	
